# xmcd
#
# Track frame offsets: 
#        151
#        17444
#        34439
#        52196
#        69643
#        86494
#        107487
#        124250
#        141707
#        157070
#        175405
#        192246
#        207957
#        225024
#
# Disc length: 3273 seconds
#
# Revision: 0
# Processed by: cddbd v1.5.1PL2 Copyright (c) Steve Scherf et al.
# Submitted via: ExactAudioCopy v0.95b4
#
DISCID=c70cc70e
DTITLE=แดง  จิตกร - แดง  ตลับทอง
DYEAR=2003
DGENRE=Country
TTITLE0=มนต์รัก  ตจว.
TTITLE1=หัวใจคิดฮอด
TTITLE2=ฮักน้องได้สองเมา
TTITLE3=น้ำตาหน้าด้าน
TTITLE4=คืนหมาเห่า
TTITLE5=น้ำตาผ่าเหล้า
TTITLE6=แค่คนชื่อหน่อย
TTITLE7=บอกอ้ายได้บ่
TTITLE8=ขอเบอร์แล้วเจอกัน
TTITLE9=กุ๊ดจี่พเนจร
TTITLE10=ผ่าเหล้าผ่ารัก
TTITLE11=ร้องเพลงเพื่อยาย
TTITLE12=ช้ำรักจากร้านลาบ
TTITLE13=รักสลายข้างไหเหล้า
EXTD=
EXTT0=
EXTT1=
EXTT2=
EXTT3=
EXTT4=
EXTT5=
EXTT6=
EXTT7=
EXTT8=
EXTT9=
EXTT10=
EXTT11=
EXTT12=
EXTT13=
PLAYORDER=
